<svg width="180" height="180" viewBox="0 0 180 180" fill="none" xmlns="http://www.w3.org/2000/svg">
<g clip-path="url(#clip0_2001_8835)">
<path d="M161.719 0H18.2812C8.18479 0 0 8.18479 0 18.2812V161.719C0 171.815 8.18479 180 18.2812 180H161.719C171.815 180 180 171.815 180 161.719V18.2812C180 8.18479 171.815 0 161.719 0Z" fill="white"/>
<path d="M56.2416 56.326L22.5 90.1337L48.7965 116.482L75.0762 142.813L78.9015 138.98L82.7096 135.164L60.2381 112.649L37.767 90.1337L67.7345 60.1074L97.7193 30.0639L93.9452 26.2827C91.8696 24.203 90.1371 22.5015 90.0858 22.5015C90.0344 22.5015 74.8188 37.7122 56.2416 56.326Z" fill="#023378"/>
<path d="M101.184 41.2013C99.1431 43.2463 97.4619 45.0168 97.4619 45.1026C97.4619 45.2059 107.531 55.3636 119.848 67.7038L142.233 90.1335L112.386 120.04C95.9695 136.488 82.5381 150.031 82.5381 150.117C82.5381 150.22 84.2365 151.991 86.3121 154.07L90.0858 157.851L123.793 124.078C142.336 105.499 157.5 90.2365 157.5 90.1335C157.5 89.9616 105.181 37.4543 105.01 37.4543C104.958 37.4543 103.243 39.1387 101.184 41.2013Z" fill="#023378"/>
<path d="M78.7124 63.8884L67.4424 75.1806L71.182 78.9275C73.2231 80.9726 74.9901 82.6569 75.0759 82.6569C75.1789 82.6569 80.3078 77.5867 86.483 71.3992L97.7189 60.1418L93.9449 56.3604C91.8693 54.2809 90.1368 52.5793 90.0855 52.5793C90.0341 52.5793 84.9221 57.6668 78.7124 63.8884Z" fill="#023378"/>
<path d="M86.1743 86.318L67.4424 105.086L71.2677 108.919L75.0759 112.735L93.8591 93.9145L112.643 75.0943L108.869 71.3133C106.793 69.2334 105.061 67.5322 105.009 67.5322C104.958 67.5322 96.4839 75.9884 86.1743 86.318Z" fill="#023378"/>
<path d="M56.2073 86.2664L52.4336 90.0475L56.293 93.9147L60.1525 97.7818L63.8752 94.0521C65.9336 91.9898 67.6144 90.2366 67.6144 90.1336C67.6144 89.9617 60.2383 82.4854 60.0671 82.4854C60.0154 82.4854 58.2829 84.1869 56.2073 86.2664Z" fill="#023378"/>
<path d="M112.472 90.0476L104.924 97.61L108.749 101.426L112.557 105.258L120.105 97.6958L127.652 90.1337L123.827 86.3006L120.019 82.4851L112.472 90.0476Z" fill="#023378"/>
<path d="M89.9998 112.563L82.4521 120.125L86.2775 123.941L90.0856 127.774L97.6333 120.211L105.181 112.649L101.356 108.816L97.5475 105L89.9998 112.563Z" fill="#023378"/>
</g>
<defs>
<clipPath id="clip0_2001_8835">
<rect width="180" height="180" fill="white"/>
</clipPath>
</defs>
</svg>
