<svg width="1900" height="280" viewBox="0 0 1900 280" fill="none" xmlns="http://www.w3.org/2000/svg">
<path d="M70.1014 69.9733L0 139.911L109.233 248.889L125.092 233.067L31.7185 139.911L156.276 15.6444L148.435 7.82222C144.123 3.52 140.524 0 140.417 0C140.31 0 108.698 31.4667 70.1014 69.9733Z" fill="#023378"/>
<path d="M163.475 38.6842C159.234 42.9153 155.741 46.5776 155.741 46.7553C155.741 46.9687 176.661 67.982 202.25 93.5109L248.759 139.911L186.747 201.778C152.641 235.804 124.736 263.822 124.736 264C124.736 264.213 128.264 267.876 132.576 272.178L140.417 280L210.447 210.133C248.972 171.698 280.477 140.124 280.477 139.911C280.477 139.556 171.779 30.9331 171.423 30.9331C171.316 30.9331 167.752 34.4176 163.475 38.6842Z" fill="#023378"/>
<path d="M116.788 85.6177L93.3735 108.978L101.143 116.729C105.384 120.96 109.055 124.445 109.233 124.445C109.447 124.445 120.103 113.956 132.933 101.156L156.276 77.8666L148.435 70.0444C144.123 65.7422 140.524 62.2222 140.417 62.2222C140.31 62.2222 129.689 72.7466 116.788 85.6177Z" fill="#023378"/>
<path d="M132.291 132.018L93.3735 170.844L109.233 186.667L187.282 108.8L179.441 100.978C175.129 96.6758 171.529 93.1558 171.422 93.1558C171.316 93.1558 153.71 110.649 132.291 132.018Z" fill="#023378"/>
<path d="M70.0302 131.911L62.1896 139.733L78.2271 155.733L85.9607 148.018C90.2374 143.751 93.7299 140.124 93.7299 139.911C93.7299 139.555 78.4053 124.089 78.0489 124.089C77.942 124.089 74.3425 127.609 70.0302 131.911Z" fill="#023378"/>
<path d="M171.244 155.378L179.192 163.271L187.103 171.2L218.466 139.911L202.606 124.089L171.244 155.378Z" fill="#023378"/>
<path d="M124.558 201.956L132.505 209.849L140.417 217.778L171.779 186.489L155.92 170.667L124.558 201.956Z" fill="#023378"/>
<path d="M1508.17 187.85H1583.64V167.182H1534.81V137.656H1575.75V116.988H1534.81V94.352H1580.48L1582.11 84.8546C1583 79.6877 1583.84 75.0128 1583.93 74.5207C1584.18 73.7333 1582.16 73.6841 1546.2 73.6841H1508.17V187.85Z" fill="#1C1C1C"/>
<path d="M1745.13 101.291C1738.71 102.029 1731.41 105.375 1725.35 110.395L1723.72 111.723V106.458C1723.72 103.604 1723.67 101.242 1723.62 101.242C1723.52 101.242 1718.05 101.783 1711.39 102.472C1704.73 103.161 1699.16 103.702 1698.96 103.702C1698.71 103.702 1698.56 130.718 1698.56 163.738V223.773H1723.72V184.996L1727.42 186.423C1734.37 189.13 1736.99 189.523 1746.9 189.523C1757.11 189.474 1760.81 188.785 1766.68 185.833C1771.27 183.569 1776.84 177.811 1779.11 173.087C1782.66 165.755 1784.24 154.88 1783.75 141.593C1783.06 123.386 1778.86 113.199 1769.39 106.704C1763.23 102.472 1753.51 100.307 1745.13 101.291ZM1747.94 121.713C1754.2 125.157 1756.77 133.523 1756.13 148.483C1755.63 158.866 1753.86 164.377 1749.86 167.822C1747.1 170.184 1744.44 170.824 1738.62 170.479C1733.54 170.233 1729.64 169.101 1725.84 166.936L1723.72 165.657V132.145L1725.45 129.734C1727.17 127.421 1730.43 124.468 1733.29 122.697C1738.17 119.597 1743.4 119.301 1747.94 121.713Z" fill="#1C1C1C"/>
<path d="M1834.16 101.242C1818.13 102.374 1808.36 107.836 1803.23 118.465C1799.53 126.142 1797.8 136.82 1798.35 149.221C1799.38 173.186 1807.28 184.504 1825.57 188.441C1834.5 190.311 1852.51 190.114 1861.19 188.047C1872.73 185.291 1880.62 177.861 1884.17 166.444C1886.15 160.096 1886.64 154.782 1886.39 142.528C1886.15 132.736 1886 130.964 1884.86 126.732C1880.92 111.871 1871.59 103.85 1855.91 101.783C1850.29 101.045 1840.52 100.799 1834.16 101.242ZM1849.99 120.975C1856.99 123.484 1859.71 129.39 1860.2 143.316C1860.5 151.435 1859.81 156.848 1857.88 161.917C1856.5 165.657 1854.58 167.773 1851.37 169.2C1849.05 170.233 1848.02 170.381 1842.59 170.381C1835.49 170.381 1833.52 169.84 1830.66 167.281C1827.01 163.984 1825.23 158.866 1824.59 149.467C1824.19 143.808 1824.98 134.901 1826.31 130.62C1828.73 122.795 1833.86 119.695 1843.58 120.138C1846.14 120.286 1849.05 120.63 1849.99 120.975Z" fill="#1C1C1C"/>
<path d="M1609.43 102.127C1602.83 102.521 1597.45 103.062 1597.45 103.259C1597.45 103.505 1603.71 112.461 1611.31 123.238C1618.95 134.015 1625.27 143.02 1625.37 143.316C1625.47 143.562 1617.92 153.551 1608.55 165.46C1599.22 177.368 1591.58 187.259 1591.53 187.456C1591.53 187.702 1597.7 187.85 1605.24 187.85L1618.9 187.801L1629.07 174.367L1639.18 160.932L1648.01 174.367L1656.84 187.85H1686.28L1684.65 185.488C1683.77 184.208 1676.81 174.268 1669.17 163.393L1655.21 143.611L1671.19 123.533C1679.97 112.51 1687.17 103.308 1687.22 103.062C1687.22 102.865 1681.05 102.718 1673.56 102.718H1659.84L1652.69 112.904C1648.75 118.465 1644.85 124.025 1643.96 125.256L1642.43 127.47L1624.92 101.241L1623.15 101.34C1622.16 101.34 1615.99 101.734 1609.43 102.127Z" fill="#1C1C1C"/>
<path d="M926.705 114.171H900.771C900.304 110.264 898.622 107.101 895.724 104.682C892.921 102.17 888.902 100.914 883.669 100.914C880.585 100.914 877.921 101.333 875.678 102.17C873.529 103.007 871.847 104.17 870.632 105.659C869.417 107.147 868.809 108.961 868.809 111.101C868.809 112.683 869.323 114.357 870.351 116.125C871.379 117.8 873.061 119.66 875.398 121.707L954.882 189.388H922.079L855.492 132.871C851.286 129.243 847.828 125.521 845.118 121.707C842.501 117.8 841.193 113.66 841.193 109.287C841.193 103.984 842.782 99.3326 845.959 95.3322C849.23 91.3318 853.95 88.2152 860.118 85.9824C866.379 83.6566 873.902 82.4937 882.687 82.4937C891.753 82.4937 899.509 83.8892 905.958 86.6801C912.406 89.4711 917.359 93.239 920.817 97.9837C924.369 102.728 926.331 108.124 926.705 114.171ZM921.378 132.173H948.574L916.472 169.014C911.986 174.317 907.407 178.643 902.734 181.992C898.154 185.248 893.154 187.667 887.734 189.249C882.407 190.83 876.286 191.621 869.37 191.621C860.772 191.621 853.389 190.272 847.221 187.574C841.053 184.783 836.286 181.062 832.922 176.41C829.651 171.759 828.016 166.502 828.016 160.641C828.016 155.431 829.371 150.687 832.081 146.407C834.885 142.128 839.23 138.546 845.118 135.662C851.006 132.685 858.622 130.731 867.968 129.801L873.435 139.988C867.267 141.29 862.454 143.477 858.996 146.547C855.632 149.524 853.95 153.106 853.95 157.292C853.95 159.99 854.744 162.502 856.333 164.828C857.922 167.061 860.118 168.828 862.921 170.131C865.819 171.433 869.23 172.084 873.155 172.084C879.977 172.084 885.631 170.782 890.117 168.177C894.603 165.572 898.481 162.13 901.752 157.85L921.378 132.173Z" fill="#1C1C1C"/>
<path d="M1245.32 65.8252L1235.31 66.8586V186.733H1260.46V182.353L1264.06 184.272C1270.23 187.569 1274.22 188.455 1283.64 188.455C1293.31 188.455 1297.45 187.668 1303.37 184.715C1315.46 178.662 1320.64 166.458 1320.64 144.117C1320.64 127.091 1317.53 116.363 1310.62 109.326C1298.59 97.1224 1276.49 96.7779 1263.27 108.539L1260.46 111.049V64.6934L1257.9 64.7426C1256.47 64.7918 1250.79 65.2839 1245.32 65.8252ZM1284.43 120.398C1290.5 123.4 1292.97 130.043 1292.97 143.182C1293.02 157.502 1290.4 165.081 1284.43 168.132C1282.95 168.919 1281.23 169.263 1278.07 169.411C1272.74 169.657 1268.4 168.427 1263.82 165.376L1260.71 163.309L1260.56 147.07L1260.46 130.88L1262.78 128.026C1269.44 120.054 1277.82 117.101 1284.43 120.398Z" fill="#1C1C1C"/>
<path d="M1446.32 65.8252L1436.55 66.8094V186.732H1461.21V64.6934L1458.65 64.7426C1457.22 64.7918 1451.64 65.2839 1446.32 65.8252Z" fill="#1C1C1C"/>
<path d="M1145.04 86.3453H1165.27V66.1694H1145.04V86.3453Z" fill="#1C1C1C"/>
<path d="M1182.03 86.3453H1202.26V66.1694H1182.03V86.3453Z" fill="#1C1C1C"/>
<path d="M998.055 186.732H1021.24L1021.34 149.727L1021.48 112.722L1045.16 168.033H1060.06L1083.63 111.688L1083.78 149.235L1083.88 186.732H1110.02V72.5669L1094.68 72.6653L1079.34 72.8129L1067.31 102.83C1060.7 119.316 1055.12 133.242 1054.93 133.685C1054.63 134.324 1050.73 125.467 1041.51 103.569L1028.49 72.5669H998.055V186.732Z" fill="#1C1C1C"/>
<path d="M1165.22 100.124C1153.23 101.01 1145.73 103.815 1139.81 109.72C1133.8 115.723 1130.94 123.203 1129.7 135.801C1128.76 145.692 1129.8 158.634 1132.07 165.819C1134.88 174.824 1141.15 181.861 1149.19 185.109C1158.95 189.095 1180.9 189.882 1193.08 186.733C1205.12 183.583 1212.81 175.513 1216.12 162.62C1217.6 156.813 1218.04 137.622 1216.86 130.24C1214.93 117.889 1209.56 109.425 1200.78 104.848C1192.99 100.764 1180.26 99.0908 1165.22 100.124ZM1181.44 120.005C1186.03 121.678 1188.1 124.187 1189.93 130.634C1191.46 135.85 1191.85 147.759 1190.72 154.254C1188.6 166.212 1183.96 170.001 1172.07 169.411C1166.45 169.116 1164.33 168.427 1161.57 165.966C1158.21 163.063 1156.73 158.782 1155.89 149.973C1155.25 143.33 1155.89 134.275 1157.37 129.502C1159.15 123.794 1162.65 120.497 1168.22 119.316C1171.28 118.676 1178.88 119.07 1181.44 120.005Z" fill="#1C1C1C"/>
<path d="M1372.18 100.124C1360.44 101.01 1352.75 104.061 1346.34 110.508C1342.73 114.051 1340.27 118.037 1338.35 123.253C1333.36 136.933 1334.25 159.618 1340.17 171.084C1342.78 176.104 1348.26 181.467 1353.24 183.928C1365.92 190.178 1387.72 190.276 1406.86 184.223C1412.28 182.501 1416.33 180.877 1416.33 180.385C1416.33 180.237 1415 176.104 1413.42 171.232C1411.44 165.032 1410.36 162.423 1409.87 162.473C1409.47 162.522 1407.1 163.457 1404.59 164.539C1402.07 165.671 1397.83 167.148 1395.22 167.886C1390.92 169.067 1389.59 169.214 1382.29 169.214C1374.99 169.214 1373.86 169.116 1371.39 168.132C1367.55 166.606 1364.68 163.998 1363.01 160.455C1362.22 158.782 1361.58 156.912 1361.58 156.223V154.993L1389.84 151.4C1405.33 149.383 1418.45 147.661 1418.99 147.513C1419.88 147.267 1419.88 146.775 1419.63 138.557C1419.34 128.321 1418.35 123.646 1415.29 117.84C1411.69 110.901 1406.07 105.833 1398.87 103.028C1392.31 100.469 1382.1 99.3864 1372.18 100.124ZM1385.84 119.07C1390.48 120.694 1394.13 126.55 1394.13 132.406V134.325L1379.48 135.949C1371.39 136.884 1363.8 137.72 1362.61 137.868L1360.44 138.163L1360.74 134.522C1361.58 123.4 1368.33 117.495 1379.58 118.037C1381.75 118.184 1384.56 118.627 1385.84 119.07Z" fill="#1C1C1C"/>
<path d="M550.745 67.5563C545.102 68.1288 540.32 68.6536 540.129 68.6536C539.89 68.7013 539.746 94.7979 539.746 126.667V184.633H564.135L564.23 162.449L564.374 140.312L578.481 162.258C586.228 174.376 592.827 184.347 593.066 184.442C593.353 184.538 599.713 184.586 607.269 184.538L620.945 184.395L608.751 166.742C602.056 157.01 594.979 146.8 593.066 144.033L589.527 138.976L604.591 121.181C612.864 111.4 619.75 103.195 619.893 103.004C620.037 102.765 614.059 102.574 606.599 102.622H593.066L564.374 137.831L564.23 102.097L564.135 66.3159L562.557 66.3636C561.744 66.4113 556.388 66.9361 550.745 67.5563Z" fill="#1C1C1C"/>
<path d="M332.685 184.633H359.847C389.639 184.633 392.938 184.395 400.398 181.818C414.601 176.952 422.539 165.693 425.265 146.609C426.221 139.692 426.365 120.847 425.504 113.786C424.404 105.103 422.013 97.3741 418.713 91.6968C416.466 87.8801 410.106 81.678 406.472 79.7696C396.907 74.7125 390.165 73.9492 355.543 73.9492H332.685V184.633ZM381.222 95.1795C385.574 96.3245 388.156 97.7558 390.834 100.427C393.895 103.481 395.569 106.677 397.099 112.545C398.725 118.748 399.203 134.062 398.007 141.695C396.238 152.716 392.699 158.727 385.909 162.162C382.035 164.071 378.497 164.596 368.215 164.596H358.508V93.8437L368.454 94.1299C375.245 94.3208 379.262 94.6547 381.222 95.1795Z" fill="#1C1C1C"/>
<path d="M473.994 101.143C456.683 103.576 446.306 113.5 442.815 131.057C441.524 137.497 441.668 152.192 443.102 158.871C446.306 174.042 454.34 182.153 469.356 185.492C472.273 186.16 475.381 186.303 484.515 186.303C495.226 186.256 496.374 186.16 501.826 184.967C507.516 183.679 517.319 180.626 519.567 179.433C520.189 179.099 520.619 178.574 520.475 178.288C520.38 177.954 519.041 173.947 517.558 169.271L514.88 160.875L510.003 163.021C507.277 164.214 502.591 165.836 499.578 166.6C494.796 167.888 493.218 168.079 487.623 168.079C482.363 168.079 480.593 167.888 478.154 167.077C472.607 165.264 469.882 162.64 468.017 157.249C467.491 155.674 467.156 154.338 467.251 154.243C467.299 154.148 480.163 152.43 495.752 150.426L524.11 146.753L523.823 138.356C523.393 125.809 521.528 119.511 516.172 112.832C511.772 107.345 506.273 104.006 498.478 102.05C495.418 101.286 492.644 101.048 485.71 100.905C480.832 100.809 475.572 100.905 473.994 101.143ZM490.54 119.034C495.322 120.656 498.382 124.998 498.956 130.866C499.195 133.442 499.1 134.062 498.574 134.062C498.191 134.11 490.827 134.921 482.124 135.923C473.468 136.925 466.295 137.688 466.247 137.688C466.199 137.64 466.343 136.018 466.582 134.062C467.586 125.952 470.886 121.276 477.102 119.129C479.972 118.128 487.671 118.08 490.54 119.034Z" fill="#1C1C1C"/>
<path d="M655.711 101.191C646.817 102.336 640.504 105.103 635.579 109.969C628.119 117.364 625.345 126.477 625.345 143.604C625.345 160.35 628.215 170.035 635.244 177.143C639.978 181.866 645.86 184.538 654.611 185.874C660.924 186.828 679.813 186.542 684.69 185.397C703.197 181.103 710.944 168.746 710.944 143.556C710.944 127.574 707.835 117.221 700.854 110.16C695.88 105.103 689.329 102.384 679.382 101.143C674.6 100.571 660.493 100.618 655.711 101.191ZM674.218 119.845C677.995 120.656 680.53 122.564 682.204 126.047C686.029 133.919 686.555 148.804 683.304 158.632C680.96 165.645 677.039 168.126 668.145 168.126C662.406 168.126 659.059 167.172 656.333 164.691C652.507 161.208 651.216 156.867 650.834 145.989C650.26 127.86 654.037 120.465 664.558 119.32C667.953 118.939 670.727 119.082 674.218 119.845Z" fill="#1C1C1C"/>
<path d="M775.262 101C767.228 102.145 759.672 105.294 755.082 109.492L752.069 112.212V106.677C752.069 101.716 751.973 101.143 751.256 101.143C750.778 101.143 745.374 101.572 739.301 102.193L728.159 103.242V184.633H752.069V136.686L753.79 134.158C759.481 125.713 767.324 121.896 780.761 120.894L785.352 120.608L784.109 110.733L782.913 100.905L779.805 100.857C778.083 100.809 776.075 100.905 775.262 101Z" fill="#1C1C1C"/>
</svg>
