<svg width="62" height="62" viewBox="0 0 62 62" fill="none" xmlns="http://www.w3.org/2000/svg">
<path d="M25.6562 15.25C25.6563 15.0262 25.7452 14.8116 25.9034 14.6534C26.0616 14.4952 26.2762 14.4063 26.5 14.4062H35.5C35.7238 14.4062 35.9384 14.4951 36.0966 14.6534C36.2549 14.8116 36.3438 15.0262 36.3438 15.25C36.3438 15.4738 36.2549 15.6884 36.0966 15.8466C35.9384 16.0049 35.7238 16.0938 35.5 16.0938H26.5C26.2762 16.0937 26.0616 16.0048 25.9034 15.8466C25.7452 15.6884 25.6563 15.4738 25.6562 15.25ZM41.9688 22V43.375C41.9678 44.1952 41.6416 44.9816 41.0616 45.5616C40.4816 46.1416 39.6952 46.4678 38.875 46.4688H23.125C22.3048 46.4678 21.5184 46.1416 20.9384 45.5616C20.3584 44.9816 20.0322 44.1952 20.0312 43.375V22C20.0322 21.1798 20.3584 20.3934 20.9384 19.8134C21.5184 19.2334 22.3048 18.9072 23.125 18.9062H38.875C39.6952 18.9072 40.4816 19.2334 41.0616 19.8134C41.6416 20.3934 41.9678 21.1798 41.9688 22ZM40.2812 22C40.2808 21.6272 40.1325 21.2697 39.8689 21.0061C39.6053 20.7425 39.2478 20.5942 38.875 20.5938H23.125C22.7522 20.5942 22.3947 20.7425 22.1311 21.0061C21.8675 21.2697 21.7192 21.6272 21.7188 22V43.375C21.7192 43.7478 21.8675 44.1053 22.1311 44.3689C22.3947 44.6325 22.7522 44.7808 23.125 44.7812H38.875C39.2478 44.7808 39.6053 44.6325 39.8689 44.3689C40.1325 44.1053 40.2808 43.7478 40.2812 43.375V22ZM33.25 31.8438H29.9963L31.7834 27.3759C31.8247 27.2729 31.8453 27.1629 31.844 27.052C31.8427 26.9412 31.8196 26.8316 31.776 26.7297C31.7324 26.6278 31.6691 26.5354 31.5898 26.458C31.5104 26.3805 31.4166 26.3195 31.3137 26.2783C31.2107 26.2371 31.1007 26.2166 30.9898 26.218C30.8789 26.2194 30.7694 26.2426 30.6676 26.2863C30.5657 26.3301 30.4734 26.3934 30.396 26.4729C30.3186 26.5523 30.2577 26.6462 30.2166 26.7491L27.9666 32.3741C27.9154 32.5022 27.8964 32.6408 27.9111 32.7779C27.9259 32.915 27.974 33.0464 28.0513 33.1605C28.1286 33.2747 28.2327 33.3682 28.3545 33.4328C28.4763 33.4975 28.6121 33.5312 28.75 33.5312H32.0037L30.2166 37.9991C30.1755 38.102 30.155 38.212 30.1563 38.3228C30.1577 38.4336 30.1808 38.543 30.2245 38.6448C30.2681 38.7467 30.3314 38.8389 30.4107 38.9163C30.49 38.9937 30.5837 39.0547 30.6866 39.0959C30.7895 39.137 30.8995 39.1575 31.0103 39.1562C31.1211 39.1548 31.2305 39.1317 31.3323 39.088C31.4342 39.0444 31.5264 38.9811 31.6038 38.9018C31.6812 38.8225 31.7422 38.7288 31.7834 38.6259L34.0334 33.0008C34.0846 32.8728 34.1036 32.7342 34.0889 32.5971C34.0741 32.46 34.026 32.3286 33.9487 32.2145C33.8714 32.1003 33.7673 32.0068 33.6455 31.9422C33.5237 31.8775 33.3879 31.8438 33.25 31.8438Z" fill="white"/>
</svg>
