<svg width="62" height="62" viewBox="0 0 62 62" fill="none" xmlns="http://www.w3.org/2000/svg">
<path d="M46.7703 29.0287H45.0664L41.0808 20.0612C40.9258 19.7129 40.6731 19.417 40.3534 19.2093C40.0338 19.0015 39.6607 18.8909 39.2795 18.8906H22.7204C22.3391 18.8909 21.9661 19.0016 21.6464 19.2093C21.3268 19.4171 21.0741 19.713 20.9191 20.0614L16.9336 29.0287H15.2296C15.0055 29.0287 14.7907 29.1177 14.6322 29.2762C14.4738 29.4346 14.3848 29.6495 14.3848 29.8735C14.3848 30.0976 14.4738 30.3125 14.6322 30.4709C14.7907 30.6294 15.0055 30.7184 15.2296 30.7184H16.6377V42.2645C16.6383 42.7872 16.8461 43.2882 17.2157 43.6578C17.5853 44.0274 18.0863 44.2352 18.609 44.2358H21.9883C22.511 44.2352 23.012 44.0274 23.3816 43.6578C23.7512 43.2882 23.959 42.7872 23.9596 42.2645V39.73H38.0403V42.2645C38.0409 42.7872 38.2488 43.2882 38.6183 43.6578C38.9879 44.0274 39.4889 44.2352 40.0116 44.2358H43.3909C43.9136 44.2352 44.4147 44.0274 44.7842 43.6578C45.1538 43.2882 45.3617 42.7872 45.3622 42.2645V30.7184H46.7703C46.9944 30.7184 47.2093 30.6294 47.3677 30.4709C47.5261 30.3125 47.6151 30.0976 47.6151 29.8735C47.6151 29.6495 47.5261 29.4346 47.3677 29.2762C47.2093 29.1177 46.9944 29.0287 46.7703 29.0287ZM22.463 20.7477C22.4852 20.6979 22.5213 20.6556 22.567 20.6259C22.6126 20.5962 22.6659 20.5804 22.7204 20.5803H39.2795C39.334 20.5804 39.3872 20.5962 39.4329 20.6259C39.4786 20.6555 39.5147 20.6978 39.5369 20.7475L43.2174 29.0287H18.7825L22.463 20.7477ZM43.6726 42.2645C43.6725 42.3392 43.6428 42.4108 43.59 42.4636C43.5372 42.5164 43.4656 42.5461 43.3909 42.5461H40.0116C39.9369 42.5461 39.8654 42.5164 39.8126 42.4636C39.7598 42.4108 39.7301 42.3392 39.73 42.2645V38.8852C39.73 38.6611 39.6409 38.4462 39.4825 38.2878C39.3241 38.1294 39.1092 38.0403 38.8851 38.0403H23.1148C22.8907 38.0403 22.6758 38.1294 22.5174 38.2878C22.359 38.4462 22.27 38.6611 22.2699 38.8852V42.2645C22.2698 42.3392 22.2401 42.4108 22.1874 42.4636C22.1346 42.5164 22.063 42.5461 21.9883 42.5461H18.609C18.5343 42.5461 18.4627 42.5164 18.4099 42.4636C18.3572 42.4108 18.3275 42.3392 18.3274 42.2645V30.7184H43.6726V42.2645Z" fill="white"/>
</svg>
