<svg width="62" height="62" viewBox="0 0 62 62" fill="none" xmlns="http://www.w3.org/2000/svg">
<path d="M44.4998 20.0312H17.4998C16.9779 20.0318 16.4775 20.2394 16.1084 20.6085C15.7393 20.9776 15.5317 21.478 15.5311 22V26.6036C15.531 26.609 15.5303 26.6144 15.5303 26.6199C15.5303 26.6254 15.531 26.6307 15.5311 26.6362V40C15.5317 40.522 15.7393 41.0224 16.1084 41.3915C16.4775 41.7606 16.9779 41.9682 17.4998 41.9688H44.4998C45.0218 41.9682 45.5222 41.7606 45.8913 41.3915C46.2604 41.0224 46.468 40.522 46.4686 40V22C46.468 21.478 46.2604 20.9776 45.8913 20.6085C45.5222 20.2394 45.0218 20.0318 44.4998 20.0312ZM17.4998 21.7188H44.4998C44.5744 21.7188 44.6459 21.7485 44.6986 21.8012C44.7514 21.8539 44.781 21.9254 44.7811 22V25.7761H17.2186V22C17.2187 21.9254 17.2483 21.8539 17.3011 21.8012C17.3538 21.7485 17.4253 21.7188 17.4998 21.7188ZM44.4998 40.2812H17.4998C17.4253 40.2812 17.3538 40.2515 17.3011 40.1988C17.2483 40.1461 17.2187 40.0746 17.2186 40V27.4636H44.7811V40C44.781 40.0746 44.7514 40.1461 44.6986 40.1988C44.6459 40.2515 44.5744 40.2812 44.4998 40.2812ZM41.9678 36.625C41.9678 36.8488 41.8789 37.0634 41.7206 37.2216C41.5624 37.3798 41.3478 37.4687 41.124 37.4688H36.624C36.4002 37.4688 36.1856 37.3799 36.0274 37.2216C35.8692 37.0634 35.7803 36.8488 35.7803 36.625C35.7803 36.4012 35.8692 36.1866 36.0274 36.0284C36.1856 35.8701 36.4002 35.7812 36.624 35.7812H41.124C41.3478 35.7813 41.5624 35.8702 41.7206 36.0284C41.8789 36.1866 41.9678 36.4012 41.9678 36.625ZM32.9678 36.625C32.9678 36.8488 32.8789 37.0634 32.7206 37.2216C32.5624 37.3798 32.3478 37.4687 32.124 37.4688H29.874C29.6502 37.4688 29.4356 37.3799 29.2774 37.2216C29.1192 37.0634 29.0303 36.8488 29.0303 36.625C29.0303 36.4012 29.1192 36.1866 29.2774 36.0284C29.4356 35.8701 29.6502 35.7812 29.874 35.7812H32.124C32.3478 35.7813 32.5624 35.8702 32.7206 36.0284C32.8789 36.1866 32.9678 36.4012 32.9678 36.625Z" fill="white"/>
</svg>
