<svg width="62" height="62" viewBox="0 0 62 62" fill="none" xmlns="http://www.w3.org/2000/svg">
<path d="M24.5312 20.875V16.375C24.5312 16.1512 24.6201 15.9366 24.7784 15.7784C24.9366 15.6201 25.1512 15.5312 25.375 15.5312C25.5988 15.5312 25.8134 15.6201 25.9716 15.7784C26.1299 15.9366 26.2188 16.1512 26.2188 16.375V20.875C26.2188 21.0988 26.1299 21.3134 25.9716 21.4716C25.8134 21.6299 25.5988 21.7187 25.375 21.7187C25.1512 21.7187 24.9366 21.6299 24.7784 21.4716C24.6201 21.3134 24.5312 21.0988 24.5312 20.875ZM29.875 21.7187C30.0988 21.7187 30.3134 21.6298 30.4716 21.4716C30.6298 21.3134 30.7187 21.0988 30.7188 20.875V16.375C30.7188 16.1512 30.6299 15.9366 30.4716 15.7784C30.3134 15.6201 30.0988 15.5312 29.875 15.5312C29.6512 15.5312 29.4366 15.6201 29.2784 15.7784C29.1201 15.9366 29.0312 16.1512 29.0312 16.375V20.875C29.0313 21.0988 29.1202 21.3134 29.2784 21.4716C29.4366 21.6298 29.6512 21.7187 29.875 21.7187ZM34.375 21.7187C34.5988 21.7187 34.8134 21.6298 34.9716 21.4716C35.1298 21.3134 35.2187 21.0988 35.2188 20.875V16.375C35.2188 16.1512 35.1299 15.9366 34.9716 15.7784C34.8134 15.6201 34.5988 15.5312 34.375 15.5312C34.1512 15.5312 33.9366 15.6201 33.7784 15.7784C33.6201 15.9366 33.5312 16.1512 33.5312 16.375V20.875C33.5313 21.0988 33.6202 21.3134 33.7784 21.4716C33.9366 21.6298 34.1512 21.7187 34.375 21.7187ZM47.5938 29.875V31C47.592 32.3907 47.0486 33.726 46.0789 34.7229C45.1092 35.7198 43.7894 36.2998 42.3993 36.34C41.5716 38.7847 40.0507 40.9359 38.0218 42.5312H42.25C42.4738 42.5312 42.6884 42.6201 42.8466 42.7784C43.0049 42.9366 43.0938 43.1512 43.0938 43.375C43.0938 43.5988 43.0049 43.8134 42.8466 43.9716C42.6884 44.1299 42.4738 44.2187 42.25 44.2187H35.0514C35.0466 44.2188 35.0417 44.2195 35.0369 44.2195C35.0332 44.2195 35.0296 44.2188 35.026 44.2187H24.7061C24.6984 44.2187 24.6908 44.219 24.6831 44.2187H17.5C17.2762 44.2187 17.0616 44.1299 16.9034 43.9716C16.7451 43.8134 16.6562 43.5988 16.6562 43.375C16.6562 43.1512 16.7451 42.9366 16.9034 42.7784C17.0616 42.6201 17.2762 42.5312 17.5 42.5312H21.7282C20.1513 41.2928 18.8757 39.713 17.9972 37.9106C17.1187 36.1082 16.6602 34.1301 16.6562 32.125V25.375C16.6563 25.1512 16.7452 24.9366 16.9034 24.7784C17.0616 24.6202 17.2762 24.5313 17.5 24.5312H42.25C43.6668 24.5329 45.025 25.0964 46.0268 26.0982C47.0286 27.1 47.5921 28.4582 47.5938 29.875ZM40.9511 35.3193C40.9575 35.2899 40.9656 35.261 40.9752 35.2325C41.2606 34.2213 41.4057 33.1757 41.4062 32.125V26.2187H18.3438V32.125C18.3481 34.301 18.966 36.4317 20.1266 38.2724C21.2871 40.1131 22.9433 41.5892 24.9049 42.5312H34.8451C36.3129 41.8262 37.6154 40.8194 38.6675 39.5767C39.7196 38.3339 40.4978 36.8832 40.9511 35.3193ZM45.9062 29.875C45.9051 29.0524 45.627 28.2541 45.1168 27.6089C44.6065 26.9636 43.8939 26.5089 43.0938 26.3181V32.125C43.0933 32.9574 43.0137 33.7878 42.856 34.6051C43.7081 34.4608 44.4817 34.0198 45.04 33.36C45.5982 32.7002 45.9051 31.8643 45.9062 31V29.875Z" fill="white"/>
</svg>
