<svg width="246" height="56" viewBox="0 0 246 56" fill="none" xmlns="http://www.w3.org/2000/svg">
<rect width="246" height="56" rx="28" fill="white"/>
<path d="M74.4943 24H70.8849V13.8182H74.5241C75.5483 13.8182 76.4299 14.022 77.169 14.4297C77.9081 14.834 78.4766 15.4157 78.8743 16.1747C79.2753 16.9337 79.4759 17.8419 79.4759 18.8991C79.4759 19.9598 79.2753 20.8712 78.8743 21.6335C78.4766 22.3958 77.9048 22.9808 77.1591 23.3885C76.4167 23.7962 75.5284 24 74.4943 24ZM73.0376 22.1555H74.4048C75.0412 22.1555 75.5765 22.0429 76.0107 21.8175C76.4482 21.5888 76.7763 21.2358 76.995 20.7585C77.2171 20.2779 77.3281 19.6581 77.3281 18.8991C77.3281 18.1468 77.2171 17.532 76.995 17.0547C76.7763 16.5774 76.4498 16.2261 76.0156 16.0007C75.5814 15.7753 75.0462 15.6626 74.4098 15.6626H73.0376V22.1555ZM84.5108 24.1491C83.7253 24.1491 83.0492 23.9901 82.4824 23.6719C81.919 23.3504 81.4848 22.8963 81.1799 22.3097C80.8749 21.7197 80.7225 21.022 80.7225 20.2166C80.7225 19.4311 80.8749 18.7417 81.1799 18.1484C81.4848 17.5552 81.914 17.0928 82.4675 16.7614C83.0243 16.4299 83.6773 16.2642 84.4263 16.2642C84.9301 16.2642 85.3991 16.3454 85.8333 16.5078C86.2708 16.6669 86.6519 16.9072 86.9767 17.2287C87.3049 17.5502 87.5601 17.9545 87.7424 18.4418C87.9247 18.9257 88.0158 19.4924 88.0158 20.142V20.7237H81.5676V19.4112H86.0222C86.0222 19.1063 85.9559 18.8362 85.8233 18.6009C85.6908 18.3655 85.5068 18.1816 85.2715 18.049C85.0395 17.9131 84.7694 17.8452 84.4611 17.8452C84.1396 17.8452 83.8546 17.9197 83.606 18.0689C83.3607 18.2147 83.1685 18.4119 83.0293 18.6605C82.8901 18.9058 82.8188 19.1792 82.8155 19.4808V20.7287C82.8155 21.1065 82.8851 21.433 83.0243 21.7081C83.1668 21.9832 83.3674 22.1953 83.6259 22.3445C83.8844 22.4936 84.191 22.5682 84.5456 22.5682C84.781 22.5682 84.9964 22.535 85.1919 22.4688C85.3875 22.4025 85.5549 22.303 85.6941 22.1705C85.8333 22.0379 85.9393 21.8755 86.0123 21.6832L87.9711 21.8125C87.8716 22.2831 87.6678 22.6941 87.3596 23.0455C87.0546 23.3935 86.6602 23.6652 86.1763 23.8608C85.6957 24.053 85.1406 24.1491 84.5108 24.1491ZM91.3169 21.8026L91.3219 19.2621H91.6301L94.0762 16.3636H96.5073L93.2211 20.2017H92.7189L91.3169 21.8026ZM89.3979 24V13.8182H91.5158V24H89.3979ZM94.1706 24L91.9235 20.674L93.3354 19.1776L96.6515 24H94.1706ZM100.682 24.1491C99.9099 24.1491 99.2421 23.9851 98.6786 23.657C98.1185 23.3255 97.686 22.8648 97.381 22.2749C97.0761 21.6816 96.9237 20.9938 96.9237 20.2116C96.9237 19.4228 97.0761 18.7334 97.381 18.1435C97.686 17.5502 98.1185 17.0895 98.6786 16.7614C99.2421 16.4299 99.9099 16.2642 100.682 16.2642C101.454 16.2642 102.121 16.4299 102.681 16.7614C103.244 17.0895 103.678 17.5502 103.983 18.1435C104.288 18.7334 104.441 19.4228 104.441 20.2116C104.441 20.9938 104.288 21.6816 103.983 22.2749C103.678 22.8648 103.244 23.3255 102.681 23.657C102.121 23.9851 101.454 24.1491 100.682 24.1491ZM100.692 22.5085C101.043 22.5085 101.337 22.4091 101.572 22.2102C101.807 22.008 101.985 21.733 102.104 21.3849C102.227 21.0369 102.288 20.6409 102.288 20.1967C102.288 19.7526 102.227 19.3565 102.104 19.0085C101.985 18.6605 101.807 18.3854 101.572 18.1832C101.337 17.9811 101.043 17.88 100.692 17.88C100.337 17.88 100.039 17.9811 99.7972 18.1832C99.5586 18.3854 99.378 18.6605 99.2553 19.0085C99.136 19.3565 99.0763 19.7526 99.0763 20.1967C99.0763 20.6409 99.136 21.0369 99.2553 21.3849C99.378 21.733 99.5586 22.008 99.7972 22.2102C100.039 22.4091 100.337 22.5085 100.692 22.5085ZM105.818 24V16.3636H107.871V17.696H107.951C108.09 17.2221 108.324 16.8641 108.652 16.6222C108.98 16.3769 109.358 16.2543 109.785 16.2543C109.891 16.2543 110.006 16.2609 110.128 16.2741C110.251 16.2874 110.359 16.3056 110.451 16.3288V18.2081C110.352 18.1783 110.214 18.1518 110.039 18.1286C109.863 18.1054 109.702 18.0938 109.556 18.0938C109.245 18.0938 108.967 18.1617 108.721 18.2976C108.479 18.4302 108.287 18.6158 108.145 18.8544C108.005 19.093 107.936 19.3681 107.936 19.6797V24H105.818ZM117.909 24.1491C117.206 24.1491 116.6 24.0232 116.089 23.7713C115.579 23.5194 115.186 23.178 114.911 22.7472C114.639 22.313 114.503 21.8291 114.503 21.2955C114.503 20.8977 114.583 20.5447 114.742 20.2365C114.901 19.9283 115.123 19.6449 115.408 19.3864C115.693 19.1245 116.025 18.8643 116.402 18.6058L118.376 17.3082C118.631 17.1458 118.819 16.9751 118.938 16.7962C119.057 16.6139 119.117 16.4167 119.117 16.2045C119.117 16.0024 119.036 15.8151 118.873 15.6428C118.711 15.4704 118.48 15.3859 118.182 15.3892C117.983 15.3892 117.811 15.4339 117.665 15.5234C117.519 15.6096 117.405 15.724 117.322 15.8665C117.243 16.0057 117.203 16.1615 117.203 16.3338C117.203 16.5459 117.262 16.7614 117.382 16.9801C117.501 17.1989 117.66 17.4309 117.859 17.6761C118.058 17.9181 118.275 18.1799 118.51 18.4616L123.338 24H121.13L117.103 19.5156C116.838 19.214 116.573 18.8991 116.308 18.571C116.046 18.2396 115.827 17.8883 115.652 17.517C115.476 17.1425 115.388 16.7365 115.388 16.299C115.388 15.8052 115.502 15.361 115.731 14.9666C115.963 14.5722 116.288 14.2607 116.706 14.032C117.123 13.8 117.61 13.6839 118.167 13.6839C118.711 13.6839 119.18 13.795 119.574 14.017C119.972 14.2358 120.277 14.5275 120.489 14.892C120.704 15.2533 120.812 15.651 120.812 16.0852C120.812 16.5658 120.693 17.0017 120.454 17.3928C120.219 17.7805 119.887 18.1286 119.46 18.4368L117.382 19.9332C117.1 20.1387 116.891 20.3492 116.755 20.5646C116.623 20.7768 116.556 20.9806 116.556 21.1761C116.556 21.4181 116.616 21.6352 116.735 21.8274C116.855 22.0196 117.024 22.1721 117.243 22.2848C117.461 22.3942 117.718 22.4489 118.013 22.4489C118.371 22.4489 118.724 22.3677 119.072 22.2053C119.423 22.0395 119.742 21.8059 120.027 21.5043C120.315 21.1993 120.545 20.8381 120.718 20.4205C120.89 20.0028 120.976 19.5405 120.976 19.0334H122.731C122.731 19.6565 122.663 20.2183 122.527 20.7188C122.391 21.2159 122.203 21.6501 121.961 22.0213C121.719 22.3892 121.442 22.6908 121.13 22.9261C121.031 22.9891 120.935 23.0488 120.842 23.1051C120.749 23.1615 120.653 23.2211 120.554 23.2841C120.176 23.589 119.753 23.8094 119.286 23.9453C118.822 24.0812 118.363 24.1491 117.909 24.1491ZM127.5 13.8182H130.155L132.959 20.6591H133.078L135.882 13.8182H138.537V24H136.449V17.3729H136.365L133.73 23.9503H132.308L129.673 17.348H129.588V24H127.5V13.8182ZM143.721 24.1491C142.949 24.1491 142.281 23.9851 141.718 23.657C141.158 23.3255 140.725 22.8648 140.42 22.2749C140.115 21.6816 139.963 20.9938 139.963 20.2116C139.963 19.4228 140.115 18.7334 140.42 18.1435C140.725 17.5502 141.158 17.0895 141.718 16.7614C142.281 16.4299 142.949 16.2642 143.721 16.2642C144.493 16.2642 145.16 16.4299 145.72 16.7614C146.283 17.0895 146.717 17.5502 147.022 18.1435C147.327 18.7334 147.48 19.4228 147.48 20.2116C147.48 20.9938 147.327 21.6816 147.022 22.2749C146.717 22.8648 146.283 23.3255 145.72 23.657C145.16 23.9851 144.493 24.1491 143.721 24.1491ZM143.731 22.5085C144.083 22.5085 144.376 22.4091 144.611 22.2102C144.846 22.008 145.024 21.733 145.143 21.3849C145.266 21.0369 145.327 20.6409 145.327 20.1967C145.327 19.7526 145.266 19.3565 145.143 19.0085C145.024 18.6605 144.846 18.3854 144.611 18.1832C144.376 17.9811 144.083 17.88 143.731 17.88C143.377 17.88 143.078 17.9811 142.836 18.1832C142.598 18.3854 142.417 18.6605 142.294 19.0085C142.175 19.3565 142.115 19.7526 142.115 20.1967C142.115 20.6409 142.175 21.0369 142.294 21.3849C142.417 21.733 142.598 22.008 142.836 22.2102C143.078 22.4091 143.377 22.5085 143.731 22.5085ZM148.897 24V13.8182H151.015V17.6463H151.079C151.172 17.4408 151.306 17.232 151.482 17.0199C151.661 16.8045 151.893 16.6255 152.178 16.483C152.466 16.3371 152.824 16.2642 153.252 16.2642C153.809 16.2642 154.322 16.41 154.793 16.7017C155.264 16.9901 155.64 17.4259 155.922 18.0092C156.203 18.5893 156.344 19.3168 156.344 20.1918C156.344 21.0436 156.207 21.7628 155.931 22.3494C155.66 22.9328 155.288 23.3752 154.818 23.6768C154.35 23.9751 153.827 24.1243 153.247 24.1243C152.836 24.1243 152.486 24.0563 152.198 23.9205C151.913 23.7846 151.679 23.6139 151.497 23.4084C151.315 23.1996 151.175 22.9891 151.079 22.777H150.985V24H148.897ZM150.97 20.1818C150.97 20.6359 151.033 21.032 151.159 21.37C151.285 21.7081 151.467 21.9716 151.706 22.1605C151.944 22.3461 152.234 22.4389 152.576 22.4389C152.92 22.4389 153.212 22.3445 153.451 22.1555C153.689 21.9633 153.87 21.6982 153.993 21.3601C154.118 21.0187 154.181 20.6259 154.181 20.1818C154.181 19.741 154.12 19.3532 153.998 19.0185C153.875 18.6837 153.694 18.4219 153.456 18.233C153.217 18.044 152.924 17.9496 152.576 17.9496C152.231 17.9496 151.939 18.0407 151.701 18.223C151.465 18.4053 151.285 18.6638 151.159 18.9986C151.033 19.3333 150.97 19.7277 150.97 20.1818ZM161.237 24.1491C160.452 24.1491 159.776 23.9901 159.209 23.6719C158.646 23.3504 158.211 22.8963 157.906 22.3097C157.602 21.7197 157.449 21.022 157.449 20.2166C157.449 19.4311 157.602 18.7417 157.906 18.1484C158.211 17.5552 158.641 17.0928 159.194 16.7614C159.751 16.4299 160.404 16.2642 161.153 16.2642C161.657 16.2642 162.126 16.3454 162.56 16.5078C162.997 16.6669 163.378 16.9072 163.703 17.2287C164.031 17.5502 164.287 17.9545 164.469 18.4418C164.651 18.9257 164.742 19.4924 164.742 20.142V20.7237H158.294V19.4112H162.749C162.749 19.1063 162.682 18.8362 162.55 18.6009C162.417 18.3655 162.233 18.1816 161.998 18.049C161.766 17.9131 161.496 17.8452 161.188 17.8452C160.866 17.8452 160.581 17.9197 160.333 18.0689C160.087 18.2147 159.895 18.4119 159.756 18.6605C159.617 18.9058 159.545 19.1792 159.542 19.4808V20.7287C159.542 21.1065 159.612 21.433 159.751 21.7081C159.893 21.9832 160.094 22.1953 160.352 22.3445C160.611 22.4936 160.918 22.5682 161.272 22.5682C161.508 22.5682 161.723 22.535 161.919 22.4688C162.114 22.4025 162.281 22.303 162.421 22.1705C162.56 22.0379 162.666 21.8755 162.739 21.6832L164.698 21.8125C164.598 22.2831 164.394 22.6941 164.086 23.0455C163.781 23.3935 163.387 23.6652 162.903 23.8608C162.422 24.053 161.867 24.1491 161.237 24.1491ZM168.242 13.8182V24H166.124V13.8182H168.242ZM173.219 24V13.8182H180.08V15.593H175.372V18.0192H179.727V19.794H175.372V22.2251H180.1V24H173.219ZM183.521 16.3636L184.923 19.0334L186.36 16.3636H188.533L186.32 20.1818L188.592 24H186.43L184.923 21.3601L183.442 24H181.254L183.521 20.1818L181.334 16.3636H183.521ZM189.79 26.8636V16.3636H191.879V17.6463H191.973C192.066 17.4408 192.2 17.232 192.376 17.0199C192.555 16.8045 192.787 16.6255 193.072 16.483C193.36 16.3371 193.718 16.2642 194.146 16.2642C194.702 16.2642 195.216 16.41 195.687 16.7017C196.157 16.9901 196.534 17.4259 196.815 18.0092C197.097 18.5893 197.238 19.3168 197.238 20.1918C197.238 21.0436 197.1 21.7628 196.825 22.3494C196.554 22.9328 196.182 23.3752 195.712 23.6768C195.244 23.9751 194.721 24.1243 194.141 24.1243C193.73 24.1243 193.38 24.0563 193.092 23.9205C192.807 23.7846 192.573 23.6139 192.391 23.4084C192.208 23.1996 192.069 22.9891 191.973 22.777H191.908V26.8636H189.79ZM191.864 20.1818C191.864 20.6359 191.927 21.032 192.053 21.37C192.179 21.7081 192.361 21.9716 192.599 22.1605C192.838 22.3461 193.128 22.4389 193.469 22.4389C193.814 22.4389 194.106 22.3445 194.344 22.1555C194.583 21.9633 194.764 21.6982 194.886 21.3601C195.012 21.0187 195.075 20.6259 195.075 20.1818C195.075 19.741 195.014 19.3532 194.891 19.0185C194.769 18.6837 194.588 18.4219 194.349 18.233C194.111 18.044 193.817 17.9496 193.469 17.9496C193.125 17.9496 192.833 18.0407 192.594 18.223C192.359 18.4053 192.179 18.6638 192.053 18.9986C191.927 19.3333 191.864 19.7277 191.864 20.1818ZM202.1 24.1491C201.328 24.1491 200.66 23.9851 200.097 23.657C199.536 23.3255 199.104 22.8648 198.799 22.2749C198.494 21.6816 198.342 20.9938 198.342 20.2116C198.342 19.4228 198.494 18.7334 198.799 18.1435C199.104 17.5502 199.536 17.0895 200.097 16.7614C200.66 16.4299 201.328 16.2642 202.1 16.2642C202.872 16.2642 203.539 16.4299 204.099 16.7614C204.662 17.0895 205.096 17.5502 205.401 18.1435C205.706 18.7334 205.859 19.4228 205.859 20.2116C205.859 20.9938 205.706 21.6816 205.401 22.2749C205.096 22.8648 204.662 23.3255 204.099 23.657C203.539 23.9851 202.872 24.1491 202.1 24.1491ZM202.11 22.5085C202.461 22.5085 202.755 22.4091 202.99 22.2102C203.225 22.008 203.403 21.733 203.522 21.3849C203.645 21.0369 203.706 20.6409 203.706 20.1967C203.706 19.7526 203.645 19.3565 203.522 19.0085C203.403 18.6605 203.225 18.3854 202.99 18.1832C202.755 17.9811 202.461 17.88 202.11 17.88C201.755 17.88 201.457 17.9811 201.215 18.1832C200.977 18.3854 200.796 18.6605 200.673 19.0085C200.554 19.3565 200.494 19.7526 200.494 20.1967C200.494 20.6409 200.554 21.0369 200.673 21.3849C200.796 21.733 200.977 22.008 201.215 22.2102C201.457 22.4091 201.755 22.5085 202.11 22.5085Z" fill="black"/>
<path d="M76.5625 38.1367V39.0566H71.9453V38.1367H76.5625ZM72.1211 34.4688V43H70.9902V34.4688H72.1211ZM77.5469 34.4688V43H76.4219V34.4688H77.5469ZM83.1309 41.916V38.6523C83.1309 38.4023 83.0801 38.1855 82.9785 38.002C82.8809 37.8145 82.7324 37.6699 82.5332 37.5684C82.334 37.4668 82.0879 37.416 81.7949 37.416C81.5215 37.416 81.2812 37.4629 81.0742 37.5566C80.8711 37.6504 80.7109 37.7734 80.5938 37.9258C80.4805 38.0781 80.4238 38.2422 80.4238 38.418H79.3398C79.3398 38.1914 79.3984 37.9668 79.5156 37.7441C79.6328 37.5215 79.8008 37.3203 80.0195 37.1406C80.2422 36.957 80.5078 36.8125 80.8164 36.707C81.1289 36.5977 81.4766 36.543 81.8594 36.543C82.3203 36.543 82.7266 36.6211 83.0781 36.7773C83.4336 36.9336 83.7109 37.1699 83.9102 37.4863C84.1133 37.7988 84.2148 38.1914 84.2148 38.6641V41.6172C84.2148 41.8281 84.2324 42.0527 84.2676 42.291C84.3066 42.5293 84.3633 42.7344 84.4375 42.9062V43H83.3066C83.252 42.875 83.209 42.709 83.1777 42.502C83.1465 42.291 83.1309 42.0957 83.1309 41.916ZM83.3184 39.1562L83.3301 39.918H82.2344C81.9258 39.918 81.6504 39.9434 81.4082 39.9941C81.166 40.041 80.9629 40.1133 80.7988 40.2109C80.6348 40.3086 80.5098 40.4316 80.4238 40.5801C80.3379 40.7246 80.2949 40.8945 80.2949 41.0898C80.2949 41.2891 80.3398 41.4707 80.4297 41.6348C80.5195 41.7988 80.6543 41.9297 80.834 42.0273C81.0176 42.1211 81.2422 42.168 81.5078 42.168C81.8398 42.168 82.1328 42.0977 82.3867 41.957C82.6406 41.8164 82.8418 41.6445 82.9902 41.4414C83.1426 41.2383 83.2246 41.041 83.2363 40.8496L83.6992 41.3711C83.6719 41.5352 83.5977 41.7168 83.4766 41.916C83.3555 42.1152 83.1934 42.3066 82.9902 42.4902C82.791 42.6699 82.5527 42.8203 82.2754 42.9414C82.002 43.0586 81.6934 43.1172 81.3496 43.1172C80.9199 43.1172 80.543 43.0332 80.2188 42.8652C79.8984 42.6973 79.6484 42.4727 79.4688 42.1914C79.293 41.9062 79.2051 41.5879 79.2051 41.2363C79.2051 40.8965 79.2715 40.5977 79.4043 40.3398C79.5371 40.0781 79.7285 39.8613 79.9785 39.6895C80.2285 39.5137 80.5293 39.3809 80.8809 39.291C81.2324 39.2012 81.625 39.1562 82.0586 39.1562H83.3184ZM86.6523 36.6602L88.041 38.9688L89.4473 36.6602H90.7188L88.6445 39.7891L90.7832 43H89.5293L88.0645 40.6211L86.5996 43H85.3398L87.4727 39.7891L85.4043 36.6602H86.6523ZM93.0449 41.2832L95.9688 36.6602H97.0586V43H95.9688V38.377L93.0449 43H91.9668V36.6602H93.0449V41.2832ZM102.443 41.5586L104.6 36.6602H105.643L102.818 43H102.068L99.2559 36.6602H100.299L102.443 41.5586ZM99.9824 36.6602V43H98.8984V36.6602H99.9824ZM104.869 43V36.6602H105.959V43H104.869ZM107.418 39.9004V39.7656C107.418 39.3086 107.484 38.8848 107.617 38.4941C107.75 38.0996 107.941 37.7578 108.191 37.4688C108.441 37.1758 108.744 36.9492 109.1 36.7891C109.455 36.625 109.854 36.543 110.295 36.543C110.74 36.543 111.141 36.625 111.496 36.7891C111.855 36.9492 112.16 37.1758 112.41 37.4688C112.664 37.7578 112.857 38.0996 112.99 38.4941C113.123 38.8848 113.189 39.3086 113.189 39.7656V39.9004C113.189 40.3574 113.123 40.7812 112.99 41.1719C112.857 41.5625 112.664 41.9043 112.41 42.1973C112.16 42.4863 111.857 42.7129 111.502 42.877C111.15 43.0371 110.752 43.1172 110.307 43.1172C109.861 43.1172 109.461 43.0371 109.105 42.877C108.75 42.7129 108.445 42.4863 108.191 42.1973C107.941 41.9043 107.75 41.5625 107.617 41.1719C107.484 40.7812 107.418 40.3574 107.418 39.9004ZM108.502 39.7656V39.9004C108.502 40.2168 108.539 40.5156 108.613 40.7969C108.688 41.0742 108.799 41.3203 108.947 41.5352C109.1 41.75 109.289 41.9199 109.516 42.0449C109.742 42.166 110.006 42.2266 110.307 42.2266C110.604 42.2266 110.863 42.166 111.086 42.0449C111.312 41.9199 111.5 41.75 111.648 41.5352C111.797 41.3203 111.908 41.0742 111.982 40.7969C112.061 40.5156 112.1 40.2168 112.1 39.9004V39.7656C112.1 39.4531 112.061 39.1582 111.982 38.8809C111.908 38.5996 111.795 38.3516 111.643 38.1367C111.494 37.918 111.307 37.7461 111.08 37.6211C110.857 37.4961 110.596 37.4336 110.295 37.4336C109.998 37.4336 109.736 37.4961 109.51 37.6211C109.287 37.7461 109.1 37.918 108.947 38.1367C108.799 38.3516 108.688 38.5996 108.613 38.8809C108.539 39.1582 108.502 39.4531 108.502 39.7656ZM117.525 40.2109H115.445L115.434 39.3438H117.133C117.469 39.3438 117.748 39.3105 117.971 39.2441C118.197 39.1777 118.367 39.0781 118.48 38.9453C118.594 38.8125 118.65 38.6484 118.65 38.4531C118.65 38.3008 118.617 38.168 118.551 38.0547C118.488 37.9375 118.393 37.8418 118.264 37.7676C118.135 37.6895 117.975 37.6328 117.783 37.5977C117.596 37.5586 117.375 37.5391 117.121 37.5391H115.732V43H114.648V36.6602H117.121C117.523 36.6602 117.885 36.6953 118.205 36.7656C118.529 36.8359 118.805 36.9434 119.031 37.0879C119.262 37.2285 119.438 37.4082 119.559 37.627C119.68 37.8457 119.74 38.1035 119.74 38.4004C119.74 38.5918 119.701 38.7734 119.623 38.9453C119.545 39.1172 119.43 39.2695 119.277 39.4023C119.125 39.5352 118.938 39.6445 118.715 39.7305C118.492 39.8125 118.236 39.8652 117.947 39.8887L117.525 40.2109ZM117.525 43H115.053L115.592 42.1211H117.525C117.826 42.1211 118.076 42.084 118.275 42.0098C118.475 41.9316 118.623 41.8223 118.721 41.6816C118.822 41.5371 118.873 41.3652 118.873 41.166C118.873 40.9668 118.822 40.7969 118.721 40.6562C118.623 40.5117 118.475 40.4023 118.275 40.3281C118.076 40.25 117.826 40.2109 117.525 40.2109H115.879L115.891 39.3438H117.947L118.34 39.6719C118.688 39.6992 118.982 39.7852 119.225 39.9297C119.467 40.0742 119.65 40.2578 119.775 40.4805C119.9 40.6992 119.963 40.9375 119.963 41.1953C119.963 41.4922 119.906 41.7539 119.793 41.9805C119.684 42.207 119.523 42.3965 119.312 42.5488C119.102 42.6973 118.846 42.8105 118.545 42.8887C118.244 42.9629 117.904 43 117.525 43ZM123.953 42.2266C124.211 42.2266 124.449 42.1738 124.668 42.0684C124.887 41.9629 125.066 41.8184 125.207 41.6348C125.348 41.4473 125.428 41.2344 125.447 40.9961H126.479C126.459 41.3711 126.332 41.7207 126.098 42.0449C125.867 42.3652 125.564 42.625 125.189 42.8242C124.814 43.0195 124.402 43.1172 123.953 43.1172C123.477 43.1172 123.061 43.0332 122.705 42.8652C122.354 42.6973 122.061 42.4668 121.826 42.1738C121.596 41.8809 121.422 41.5449 121.305 41.166C121.191 40.7832 121.135 40.3789 121.135 39.9531V39.707C121.135 39.2812 121.191 38.8789 121.305 38.5C121.422 38.1172 121.596 37.7793 121.826 37.4863C122.061 37.1934 122.354 36.9629 122.705 36.7949C123.061 36.627 123.477 36.543 123.953 36.543C124.449 36.543 124.883 36.6445 125.254 36.8477C125.625 37.0469 125.916 37.3203 126.127 37.668C126.342 38.0117 126.459 38.4023 126.479 38.8398H125.447C125.428 38.5781 125.354 38.3418 125.225 38.1309C125.1 37.9199 124.928 37.752 124.709 37.627C124.494 37.498 124.242 37.4336 123.953 37.4336C123.621 37.4336 123.342 37.5 123.115 37.6328C122.893 37.7617 122.715 37.9375 122.582 38.1602C122.453 38.3789 122.359 38.623 122.301 38.8926C122.246 39.1582 122.219 39.4297 122.219 39.707V39.9531C122.219 40.2305 122.246 40.5039 122.301 40.7734C122.355 41.043 122.447 41.2871 122.576 41.5059C122.709 41.7246 122.887 41.9004 123.109 42.0332C123.336 42.1621 123.617 42.2266 123.953 42.2266ZM128.875 36.6602V43H127.791V36.6602H128.875ZM133.035 36.6602L130.029 40.293H128.512L128.348 39.3438H129.59L131.717 36.6602H133.035ZM131.869 43L129.537 40.1289L130.234 39.3438L133.246 43H131.869ZM135.361 41.2832L138.285 36.6602H139.375V43H138.285V38.377L135.361 43H134.283V36.6602H135.361V41.2832ZM142.287 41.2832L145.211 36.6602H146.301V43H145.211V38.377L142.287 43H141.209V36.6602H142.287V41.2832ZM144.619 34.3633H145.498C145.498 34.668 145.428 34.9395 145.287 35.1777C145.146 35.4121 144.945 35.5957 144.684 35.7285C144.422 35.8613 144.111 35.9277 143.752 35.9277C143.209 35.9277 142.779 35.7832 142.463 35.4941C142.15 35.2012 141.994 34.8242 141.994 34.3633H142.873C142.873 34.5938 142.939 34.7969 143.072 34.9727C143.205 35.1484 143.432 35.2363 143.752 35.2363C144.064 35.2363 144.287 35.1484 144.42 34.9727C144.553 34.7969 144.619 34.5938 144.619 34.3633ZM155.242 36.6602V37.5566H152.037V36.6602H155.242ZM152.195 36.6602V43H151.111V36.6602H152.195ZM156.203 36.6602V43H155.113V36.6602H156.203ZM159.027 37.8789V45.4375H157.938V36.6602H158.934L159.027 37.8789ZM163.299 39.7773V39.9004C163.299 40.3613 163.244 40.7891 163.135 41.1836C163.025 41.5742 162.865 41.9141 162.654 42.2031C162.447 42.4922 162.191 42.7168 161.887 42.877C161.582 43.0371 161.232 43.1172 160.838 43.1172C160.436 43.1172 160.08 43.0508 159.771 42.918C159.463 42.7852 159.201 42.5918 158.986 42.3379C158.771 42.084 158.6 41.7793 158.471 41.4238C158.346 41.0684 158.26 40.668 158.213 40.2227V39.5664C158.26 39.0977 158.348 38.6777 158.477 38.3066C158.605 37.9355 158.775 37.6191 158.986 37.3574C159.201 37.0918 159.461 36.8906 159.766 36.7539C160.07 36.6133 160.422 36.543 160.82 36.543C161.219 36.543 161.572 36.6211 161.881 36.7773C162.189 36.9297 162.449 37.1484 162.66 37.4336C162.871 37.7188 163.029 38.0605 163.135 38.459C163.244 38.8535 163.299 39.293 163.299 39.7773ZM162.209 39.9004V39.7773C162.209 39.4609 162.176 39.1641 162.109 38.8867C162.043 38.6055 161.939 38.3594 161.799 38.1484C161.662 37.9336 161.486 37.7656 161.271 37.6445C161.057 37.5195 160.801 37.457 160.504 37.457C160.23 37.457 159.992 37.5039 159.789 37.5977C159.59 37.6914 159.42 37.8184 159.279 37.9785C159.139 38.1348 159.023 38.3145 158.934 38.5176C158.848 38.7168 158.783 38.9238 158.74 39.1387V40.6562C158.818 40.9297 158.928 41.1875 159.068 41.4297C159.209 41.668 159.396 41.8613 159.631 42.0098C159.865 42.1543 160.16 42.2266 160.516 42.2266C160.809 42.2266 161.061 42.166 161.271 42.0449C161.486 41.9199 161.662 41.75 161.799 41.5352C161.939 41.3203 162.043 41.0742 162.109 40.7969C162.176 40.5156 162.209 40.2168 162.209 39.9004ZM164.395 39.9004V39.7656C164.395 39.3086 164.461 38.8848 164.594 38.4941C164.727 38.0996 164.918 37.7578 165.168 37.4688C165.418 37.1758 165.721 36.9492 166.076 36.7891C166.432 36.625 166.83 36.543 167.271 36.543C167.717 36.543 168.117 36.625 168.473 36.7891C168.832 36.9492 169.137 37.1758 169.387 37.4688C169.641 37.7578 169.834 38.0996 169.967 38.4941C170.1 38.8848 170.166 39.3086 170.166 39.7656V39.9004C170.166 40.3574 170.1 40.7812 169.967 41.1719C169.834 41.5625 169.641 41.9043 169.387 42.1973C169.137 42.4863 168.834 42.7129 168.479 42.877C168.127 43.0371 167.729 43.1172 167.283 43.1172C166.838 43.1172 166.438 43.0371 166.082 42.877C165.727 42.7129 165.422 42.4863 165.168 42.1973C164.918 41.9043 164.727 41.5625 164.594 41.1719C164.461 40.7812 164.395 40.3574 164.395 39.9004ZM165.479 39.7656V39.9004C165.479 40.2168 165.516 40.5156 165.59 40.7969C165.664 41.0742 165.775 41.3203 165.924 41.5352C166.076 41.75 166.266 41.9199 166.492 42.0449C166.719 42.166 166.982 42.2266 167.283 42.2266C167.58 42.2266 167.84 42.166 168.062 42.0449C168.289 41.9199 168.477 41.75 168.625 41.5352C168.773 41.3203 168.885 41.0742 168.959 40.7969C169.037 40.5156 169.076 40.2168 169.076 39.9004V39.7656C169.076 39.4531 169.037 39.1582 168.959 38.8809C168.885 38.5996 168.771 38.3516 168.619 38.1367C168.471 37.918 168.283 37.7461 168.057 37.6211C167.834 37.4961 167.572 37.4336 167.271 37.4336C166.975 37.4336 166.713 37.4961 166.486 37.6211C166.264 37.7461 166.076 37.918 165.924 38.1367C165.775 38.3516 165.664 38.5996 165.59 38.8809C165.516 39.1582 165.479 39.4531 165.479 39.7656ZM174.062 42.2266C174.32 42.2266 174.559 42.1738 174.777 42.0684C174.996 41.9629 175.176 41.8184 175.316 41.6348C175.457 41.4473 175.537 41.2344 175.557 40.9961H176.588C176.568 41.3711 176.441 41.7207 176.207 42.0449C175.977 42.3652 175.674 42.625 175.299 42.8242C174.924 43.0195 174.512 43.1172 174.062 43.1172C173.586 43.1172 173.17 43.0332 172.814 42.8652C172.463 42.6973 172.17 42.4668 171.936 42.1738C171.705 41.8809 171.531 41.5449 171.414 41.166C171.301 40.7832 171.244 40.3789 171.244 39.9531V39.707C171.244 39.2812 171.301 38.8789 171.414 38.5C171.531 38.1172 171.705 37.7793 171.936 37.4863C172.17 37.1934 172.463 36.9629 172.814 36.7949C173.17 36.627 173.586 36.543 174.062 36.543C174.559 36.543 174.992 36.6445 175.363 36.8477C175.734 37.0469 176.025 37.3203 176.236 37.668C176.451 38.0117 176.568 38.4023 176.588 38.8398H175.557C175.537 38.5781 175.463 38.3418 175.334 38.1309C175.209 37.9199 175.037 37.752 174.818 37.627C174.604 37.498 174.352 37.4336 174.062 37.4336C173.73 37.4336 173.451 37.5 173.225 37.6328C173.002 37.7617 172.824 37.9375 172.691 38.1602C172.562 38.3789 172.469 38.623 172.41 38.8926C172.355 39.1582 172.328 39.4297 172.328 39.707V39.9531C172.328 40.2305 172.355 40.5039 172.41 40.7734C172.465 41.043 172.557 41.2871 172.686 41.5059C172.818 41.7246 172.996 41.9004 173.219 42.0332C173.445 42.1621 173.727 42.2266 174.062 42.2266ZM182.031 36.6602V37.5566H178.826V36.6602H182.031ZM178.984 36.6602V43H177.9V36.6602H178.984ZM182.992 36.6602V43H181.902V36.6602H182.992ZM187.363 43.1172C186.922 43.1172 186.521 43.043 186.162 42.8945C185.807 42.7422 185.5 42.5293 185.242 42.2559C184.988 41.9824 184.793 41.6582 184.656 41.2832C184.52 40.9082 184.451 40.498 184.451 40.0527V39.8066C184.451 39.291 184.527 38.832 184.68 38.4297C184.832 38.0234 185.039 37.6797 185.301 37.3984C185.562 37.1172 185.859 36.9043 186.191 36.7598C186.523 36.6152 186.867 36.543 187.223 36.543C187.676 36.543 188.066 36.6211 188.395 36.7773C188.727 36.9336 188.998 37.1523 189.209 37.4336C189.42 37.7109 189.576 38.0391 189.678 38.418C189.779 38.793 189.83 39.2031 189.83 39.6484V40.1348H185.096V39.25H188.746V39.168C188.73 38.8867 188.672 38.6133 188.57 38.3477C188.473 38.082 188.316 37.8633 188.102 37.6914C187.887 37.5195 187.594 37.4336 187.223 37.4336C186.977 37.4336 186.75 37.4863 186.543 37.5918C186.336 37.6934 186.158 37.8457 186.01 38.0488C185.861 38.252 185.746 38.5 185.664 38.793C185.582 39.0859 185.541 39.4238 185.541 39.8066V40.0527C185.541 40.3535 185.582 40.6367 185.664 40.9023C185.75 41.1641 185.873 41.3945 186.033 41.5938C186.197 41.793 186.395 41.9492 186.625 42.0625C186.859 42.1758 187.125 42.2324 187.422 42.2324C187.805 42.2324 188.129 42.1543 188.395 41.998C188.66 41.8418 188.893 41.6328 189.092 41.3711L189.748 41.8926C189.611 42.0996 189.438 42.2969 189.227 42.4844C189.016 42.6719 188.756 42.8242 188.447 42.9414C188.143 43.0586 187.781 43.1172 187.363 43.1172ZM192.273 36.6602V43H191.189V36.6602H192.273ZM196.434 36.6602L193.428 40.293H191.91L191.746 39.3438H192.988L195.115 36.6602H196.434ZM195.268 43L192.936 40.1289L193.633 39.3438L196.645 43H195.268ZM200.172 36.6602V43H199.082V36.6602H200.172ZM202.299 36.6602V37.5391H196.996V36.6602H202.299ZM204.35 41.7109V42.584C204.35 42.9395 204.26 43.3145 204.08 43.709C203.9 44.1074 203.648 44.4395 203.324 44.7051L202.709 44.2773C202.834 44.1055 202.939 43.9297 203.025 43.75C203.111 43.5742 203.176 43.3906 203.219 43.1992C203.266 43.0117 203.289 42.8125 203.289 42.6016V41.7109H204.35ZM214.182 42.1094V43H208.598V42.2207L211.393 39.1094C211.736 38.7266 212.002 38.4023 212.189 38.1367C212.381 37.8672 212.514 37.627 212.588 37.416C212.666 37.2012 212.705 36.9824 212.705 36.7598C212.705 36.4785 212.646 36.2246 212.529 35.998C212.416 35.7676 212.248 35.584 212.025 35.4473C211.803 35.3105 211.533 35.2422 211.217 35.2422C210.838 35.2422 210.521 35.3164 210.268 35.4648C210.018 35.6094 209.83 35.8125 209.705 36.0742C209.58 36.3359 209.518 36.6367 209.518 36.9766H208.434C208.434 36.4961 208.539 36.0566 208.75 35.6582C208.961 35.2598 209.273 34.9434 209.688 34.709C210.102 34.4707 210.611 34.3516 211.217 34.3516C211.756 34.3516 212.217 34.4473 212.6 34.6387C212.982 34.8262 213.275 35.0918 213.479 35.4355C213.686 35.7754 213.789 36.1738 213.789 36.6309C213.789 36.8809 213.746 37.1348 213.66 37.3926C213.578 37.6465 213.463 37.9004 213.314 38.1543C213.17 38.4082 213 38.6582 212.805 38.9043C212.613 39.1504 212.408 39.3926 212.189 39.6309L209.904 42.1094H214.182ZM221.107 40.1289V41.0195H214.943V40.3809L218.764 34.4688H219.648L218.699 36.1797L216.174 40.1289H221.107ZM219.918 34.4688V43H218.834V34.4688H219.918Z" fill="#757575"/>
<circle cx="28" cy="28" r="28" fill="#023378"/>
<path d="M20.9982 20.9973L14 27.9911L24.9047 38.8889L26.4879 37.3067L17.1665 27.9911L29.601 15.5644L28.8183 14.7822C28.3878 14.352 28.0285 14 28.0178 14C28.0071 14 24.8513 17.1467 20.9982 20.9973Z" fill="white"/>
<path d="M30.3197 17.8685C29.8963 18.2916 29.5476 18.6578 29.5476 18.6756C29.5476 18.6969 31.6361 20.7982 34.1906 23.3511L38.8335 27.9911L32.6429 34.1778C29.2381 37.5804 26.4523 40.3822 26.4523 40.4C26.4523 40.4213 26.8046 40.7876 27.2351 41.2178L28.0178 42L35.0089 35.0133C38.8549 31.1698 42 28.0124 42 27.9911C42 27.9556 31.1487 17.0933 31.1131 17.0933C31.1024 17.0933 30.7466 17.4418 30.3197 17.8685Z" fill="white"/>
<path d="M25.659 22.5618L23.3215 24.8978L24.0971 25.6729C24.5205 26.096 24.8869 26.4445 24.9047 26.4445C24.9261 26.4445 25.9898 25.3956 27.2707 24.1156L29.601 21.7867L28.8183 21.0045C28.3878 20.5742 28.0285 20.2222 28.0178 20.2222C28.0071 20.2222 26.9469 21.2747 25.659 22.5618Z" fill="white"/>
<path d="M27.2066 27.2018L23.3215 31.0844L24.9047 32.6667L32.6963 24.88L31.9136 24.0978C31.4831 23.6676 31.1238 23.3156 31.1131 23.3156C31.1024 23.3156 29.3449 25.0649 27.2066 27.2018Z" fill="white"/>
<path d="M20.9911 27.1911L20.2084 27.9733L21.8094 29.5733L22.5814 28.8018C23.0084 28.3751 23.357 28.0125 23.357 27.9911C23.357 27.9556 21.8272 26.4089 21.7916 26.4089C21.7809 26.4089 21.4216 26.7609 20.9911 27.1911Z" fill="white"/>
<path d="M31.0953 29.5378L31.8887 30.3271L32.6785 31.12L35.8094 27.9911L34.2262 26.4089L31.0953 29.5378Z" fill="white"/>
<path d="M26.4346 34.1956L27.228 34.9849L28.0178 35.7778L31.1487 32.6489L29.5654 31.0667L26.4346 34.1956Z" fill="white"/>
</svg>
