<svg width="52" height="52" viewBox="0 0 52 52" fill="none" xmlns="http://www.w3.org/2000/svg">
<path d="M26 18.7344C25.1193 18.7344 24.2583 18.9955 23.526 19.4849C22.7937 19.9742 22.2229 20.6697 21.8858 21.4834C21.5488 22.2971 21.4606 23.1924 21.6324 24.0563C21.8043 24.9201 22.2284 25.7136 22.8512 26.3363C23.4739 26.9591 24.2674 27.3832 25.1312 27.5551C25.9951 27.7269 26.8904 27.6387 27.7041 27.3017C28.5178 26.9646 29.2133 26.3938 29.7026 25.6615C30.192 24.9292 30.4531 24.0682 30.4531 23.1875C30.4518 22.0069 29.9822 20.875 29.1474 20.0401C28.3125 19.2053 27.1806 18.7357 26 18.7344ZM26 26.2344C25.3974 26.2344 24.8083 26.0557 24.3072 25.7209C23.8062 25.3861 23.4157 24.9102 23.1851 24.3535C22.9544 23.7967 22.8941 23.1841 23.0117 22.5931C23.1292 22.002 23.4194 21.4591 23.8455 21.033C24.2716 20.6069 24.8145 20.3167 25.4056 20.1992C25.9966 20.0816 26.6092 20.1419 27.166 20.3726C27.7227 20.6032 28.1986 20.9937 28.5334 21.4947C28.8682 21.9958 29.0469 22.5849 29.0469 23.1875C29.046 23.9953 28.7247 24.7698 28.1535 25.341C27.5823 25.9122 26.8078 26.2335 26 26.2344ZM26 13.1094C23.328 13.1124 20.7664 14.1752 18.877 16.0645C16.9877 17.9539 15.9249 20.5155 15.9219 23.1875C15.9219 26.8094 17.6024 30.6565 20.782 34.3129C22.2169 35.9704 23.8318 37.4631 25.5968 38.7635C25.715 38.8462 25.8557 38.8906 26 38.8906C26.1443 38.8906 26.285 38.8462 26.4032 38.7635C28.1682 37.4631 29.7831 35.9704 31.218 34.3129C34.3976 30.6565 36.0781 26.8094 36.0781 23.1875C36.0751 20.5155 35.0123 17.9539 33.123 16.0645C31.2336 14.1752 28.672 13.1124 26 13.1094ZM26 37.31C24.2396 35.9522 17.3281 30.1747 17.3281 23.1875C17.3281 20.8876 18.2418 18.6819 19.8681 17.0556C21.4944 15.4293 23.7001 14.5156 26 14.5156C28.2999 14.5156 30.5056 15.4293 32.1319 17.0556C33.7582 18.6819 34.6719 20.8876 34.6719 23.1875C34.6719 30.1747 27.7602 35.9524 26 37.31Z" fill="white"/>
</svg>
