<svg width="52" height="52" viewBox="0 0 52 52" fill="none" xmlns="http://www.w3.org/2000/svg">
<path d="M31.625 37.0156C22.4494 37.0156 14.9844 29.5506 14.9844 20.375C14.9859 18.8356 15.5478 17.3495 16.5651 16.1942C17.5824 15.0388 18.9854 14.2934 20.5122 14.097C20.8647 14.0546 21.2214 14.1274 21.529 14.3046C21.8367 14.4818 22.0787 14.7538 22.2189 15.0799L24.5733 20.5734C24.6802 20.822 24.7237 21.0933 24.7001 21.3629C24.6765 21.6325 24.5865 21.892 24.438 22.1183L22.4885 25.097C22.4665 25.1291 22.4531 25.1663 22.4496 25.205C22.4462 25.2438 22.4529 25.2827 22.4689 25.3181C23.3735 27.1635 24.8698 28.6531 26.7193 29.5494C26.7549 29.5653 26.7941 29.5717 26.8329 29.568C26.8718 29.5642 26.909 29.5505 26.9409 29.5281L29.8747 27.5717C30.1016 27.4198 30.3629 27.3272 30.6348 27.3022C30.9067 27.2773 31.1805 27.3208 31.4313 27.4288L36.92 29.7811C37.2461 29.9213 37.5182 30.1633 37.6954 30.4709C37.8726 30.7785 37.9454 31.1353 37.903 31.4878C37.7066 33.0145 36.9611 34.4176 35.8058 35.4349C34.6505 36.4521 33.1644 37.014 31.625 37.0156ZM20.7151 15.4905C20.7062 15.4905 20.6973 15.4911 20.6885 15.4922C19.5012 15.6451 18.4102 16.225 17.6193 17.1236C16.8284 18.0221 16.3916 19.1779 16.3906 20.375C16.3952 24.414 18.0017 28.2863 20.8577 31.1423C23.7137 33.9983 27.586 35.6048 31.625 35.6093C32.8221 35.6084 33.9778 35.1716 34.8764 34.3807C35.7749 33.5898 36.3548 32.4988 36.5077 31.3115C36.513 31.2619 36.502 31.2119 36.4764 31.169C36.4508 31.1261 36.4121 31.0926 36.3659 31.0736L30.8774 28.7213C30.8415 28.7059 30.8024 28.6997 30.7635 28.7033C30.7247 28.7069 30.6873 28.7201 30.6549 28.7417L27.7212 30.6981C27.4855 30.8558 27.2129 30.9495 26.9301 30.9701C26.6473 30.9908 26.364 30.9376 26.1079 30.8158C23.9746 29.782 22.2488 28.0639 21.2053 25.9353C21.0829 25.6808 21.0284 25.3989 21.0471 25.1171C21.0658 24.8353 21.1569 24.5631 21.3118 24.327L23.2613 21.3481C23.2825 21.3157 23.2954 21.2786 23.2988 21.2401C23.3022 21.2015 23.2959 21.1627 23.2807 21.1272L20.9264 15.6339C20.9089 15.5921 20.8796 15.5562 20.8421 15.5308C20.8046 15.5053 20.7605 15.4913 20.7151 15.4905Z" fill="white"/>
</svg>
