<svg width="52" height="52" viewBox="0 0 52 52" fill="none" xmlns="http://www.w3.org/2000/svg">
<path d="M26 37.9531C23.6359 37.9531 21.3249 37.2521 19.3592 35.9387C17.3935 34.6252 15.8615 32.7584 14.9568 30.5743C14.0521 28.3901 13.8153 25.9867 14.2766 23.6681C14.7378 21.3494 15.8762 19.2195 17.5479 17.5479C19.2195 15.8762 21.3494 14.7378 23.6681 14.2766C25.9867 13.8153 28.3901 14.0521 30.5743 14.9568C32.7584 15.8615 34.6252 17.3935 35.9387 19.3592C37.2521 21.3249 37.9531 23.6359 37.9531 26C37.9496 29.1691 36.6891 32.2073 34.4482 34.4482C32.2073 36.6891 29.1691 37.9496 26 37.9531ZM26 15.4531C23.914 15.4531 21.8749 16.0717 20.1405 17.2306C18.4061 18.3895 17.0542 20.0367 16.256 21.9639C15.4577 23.8911 15.2488 26.0117 15.6558 28.0576C16.0627 30.1035 17.0672 31.9828 18.5422 33.4578C20.0172 34.9328 21.8965 35.9373 23.9424 36.3442C25.9883 36.7512 28.1089 36.5423 30.0361 35.744C31.9633 34.9458 33.6105 33.594 34.7694 31.8595C35.9283 30.1251 36.5469 28.086 36.5469 26C36.5437 23.2038 35.4315 20.523 33.4543 18.5457C31.477 16.5685 28.7962 15.4563 26 15.4531ZM33.2656 26C33.2656 25.8135 33.1916 25.6347 33.0597 25.5028C32.9278 25.371 32.749 25.2969 32.5625 25.2969H26.7031V19.4375C26.7031 19.251 26.6291 19.0722 26.4972 18.9403C26.3653 18.8085 26.1865 18.7344 26 18.7344C25.8135 18.7344 25.6347 18.8085 25.5028 18.9403C25.371 19.0722 25.2969 19.251 25.2969 19.4375V26C25.2969 26.1865 25.371 26.3653 25.5028 26.4972C25.6347 26.6291 25.8135 26.7031 26 26.7031H32.5625C32.749 26.7031 32.9278 26.6291 33.0597 26.4972C33.1916 26.3653 33.2656 26.1865 33.2656 26Z" fill="white"/>
</svg>
